HIERARCHY
ROOT root
{
	OFFSET 0.000000 0.000000 0.000000
	CHANNELS 6 Xposition Yposition Zposition Zrotation Yrotation Xrotation
	JOINT lhip
	{
		OFFSET 0.058581 -0.082280 -0.017664
		CHANNELS 3 Zrotation Yrotation Xrotation
		JOINT lknee
		{
			OFFSET 0.043451 -0.386469 0.008037
			CHANNELS 3 Zrotation Yrotation Xrotation
			JOINT lankle
			{
				OFFSET -0.014790 -0.426874 -0.037428
				CHANNELS 3 Zrotation Yrotation Xrotation
				JOINT ltoe
				{
					OFFSET 0.041054 -0.060286 0.122042
					CHANNELS 3 Zrotation Yrotation Xrotation
					End Site
					{
						OFFSET 0.000000 0.000000 0.000000
					}
				}
			}
		}
	}
	JOINT rhip
	{
		OFFSET -0.060310 -0.090513 -0.013543
		CHANNELS 3 Zrotation Yrotation Xrotation
		JOINT rknee
		{
			OFFSET -0.043257 -0.383688 -0.004843
			CHANNELS 3 Zrotation Yrotation Xrotation
			JOINT rankle
			{
				OFFSET 0.019056 -0.420046 -0.034562
				CHANNELS 3 Zrotation Yrotation Xrotation
				JOINT rtoe
				{
					OFFSET -0.034840 -0.062106 0.130323
					CHANNELS 3 Zrotation Yrotation Xrotation
					End Site
					{
						OFFSET 0.000000 0.000000 0.000000
					}
				}
			}
		}
	}
	JOINT lowerback
	{
		OFFSET 0.004439 0.124404 -0.038385
		CHANNELS 3 Zrotation Yrotation Xrotation
		JOINT upperback
		{
			OFFSET 0.004488 0.137956 0.026820
			CHANNELS 3 Zrotation Yrotation Xrotation
			JOINT chest
			{
				OFFSET -0.002265 0.056032 0.002855
				CHANNELS 3 Zrotation Yrotation Xrotation
				JOINT lowerneck
				{
					OFFSET -0.013390 0.211636 -0.033468
					CHANNELS 3 Zrotation Yrotation Xrotation
					JOINT upperneck
					{
						OFFSET 0.010113 0.088937 0.050410
						CHANNELS 3 Zrotation Yrotation Xrotation
						End Site
						{
							OFFSET 0.000000 0.000000 0.000000
						}
					}
				}
				JOINT lclavicle
				{
					OFFSET 0.071702 0.114000 -0.018898
					CHANNELS 3 Zrotation Yrotation Xrotation
					JOINT lshoulder
					{
						OFFSET 0.122921 0.045205 -0.019046
						CHANNELS 3 Zrotation Yrotation Xrotation
						JOINT lelbow
						{
							OFFSET 0.255332 -0.015649 -0.022946
							CHANNELS 3 Zrotation Yrotation Xrotation
							JOINT lwrist
							{
								OFFSET 0.265709 0.012698 -0.007375
								CHANNELS 3 Zrotation Yrotation Xrotation
								End Site
								{
									OFFSET 0.000000 0.000000 0.000000
								}
							}
						}
					}
				}
				JOINT rclavicle
				{
					OFFSET -0.082954 0.112472 -0.023707
					CHANNELS 3 Zrotation Yrotation Xrotation
					JOINT rshoulder
					{
						OFFSET -0.113228 0.046853 -0.008472
						CHANNELS 3 Zrotation Yrotation Xrotation
						JOINT relbow
						{
							OFFSET -0.260127 -0.014369 -0.031269
							CHANNELS 3 Zrotation Yrotation Xrotation
							JOINT rwrist
							{
								OFFSET -0.269108 0.006794 -0.006027
								CHANNELS 3 Zrotation Yrotation Xrotation
								End Site
								{
									OFFSET 0.000000 0.000000 0.000000
								}
							}
						}
					}
				}
			}
		}
	}
}
MOTION
Frames: 13
Frame Time: 0.033333
1.111191 0.763343 0.994079 -85.944530 2.194415 86.573278 1.031033 -0.609792 6.471072 -2.266549 -16.631670 2.607072 5.939460 6.887241 -16.676494 0.000000 -0.000000 0.000000 2.622123 -2.807852 6.009281 3.843442 2.656431 4.369436 3.261421 -5.483995 -10.942982 0.000000 -0.000000 0.000000 -1.407064 1.337111 6.089206 1.445148 -3.438738 2.072113 1.525398 -2.570307 4.784395 3.339418 -1.276687 -9.949711 4.567627 -5.954925 -5.871564 -28.457250 3.316474 0.042399 -57.962263 -5.917422 7.215416 8.295211 -20.121524 4.990780 -3.294014 -0.445792 -5.574813 26.686778 -2.524761 -1.582475 58.752216 -1.164678 9.811293 -13.927438 17.666571 -3.755333 7.773217 -1.619094 -6.251183 
1.112382 0.763014 0.991525 -86.032436 2.600631 87.581281 1.532079 -1.009456 5.005432 -2.627307 -16.122837 3.160503 5.943539 6.932012 -16.613849 0.000000 -0.000000 0.000000 2.999438 -2.851414 4.471164 3.999237 2.985876 4.835054 2.868392 -5.612394 -10.903246 0.000000 -0.000000 0.000000 -0.637432 1.027018 5.204590 1.459451 -3.351108 2.150791 1.096611 -2.767277 5.053205 3.789253 -0.825656 -10.933966 4.403272 -5.363106 -6.673064 -28.909909 3.863501 -0.310939 -57.735527 -5.396573 6.757410 9.108049 -17.029202 4.755168 -3.342784 -0.362343 -5.056951 26.048889 -3.690923 -2.052498 59.226942 -0.649364 9.760188 -13.400061 16.925935 -3.413255 6.794557 -1.254776 -5.831528 
1.111277 0.762653 0.990994 -86.023755 2.785871 87.414595 1.686500 -1.094895 5.272455 -2.601712 -16.156547 3.171121 5.884321 6.952437 -16.611047 0.000000 -0.000000 0.000000 3.238429 -2.137241 4.963212 3.987382 2.658966 4.445641 2.834595 -6.069083 -10.764261 0.000000 -0.000000 0.000000 -0.595435 0.855789 5.392921 1.528608 -3.405667 2.515379 1.215489 -2.700696 4.930045 3.969538 -0.478522 -11.414147 4.366069 -5.028444 -7.073850 -28.944624 4.139877 0.051277 -57.819917 -4.695967 6.375649 9.639888 -15.052605 4.557919 -3.539461 -0.160215 -5.068341 26.128743 -3.368029 -1.579486 59.095442 -1.413325 9.857732 -14.252577 16.309311 -3.750848 6.630022 -1.472626 -6.314121 
1.110319 0.762512 0.990324 -86.294775 2.938516 87.536057 1.877389 -1.025059 5.277875 -2.658409 -15.985650 3.063778 5.900656 6.992603 -16.571298 0.000000 -0.000000 0.000000 3.390740 -2.112057 5.003210 3.963935 2.783255 4.185957 2.753475 -6.011003 -10.555554 0.000000 -0.000000 0.000000 -0.518214 0.774312 5.211738 1.498504 -3.450238 2.694705 1.215615 -2.645228 4.889723 3.904630 0.323638 -10.868072 4.271475 -3.964400 -7.514697 -28.861503 4.539514 0.567008 -57.732263 -3.775565 5.878796 9.874420 -13.151655 4.563550 -4.000350 0.073453 -4.875735 25.973534 -3.685336 -1.395475 59.214998 -1.256661 9.472321 -14.174086 15.850127 -4.047550 6.761278 -1.312705 -6.858197 
1.109619 0.762171 0.990399 -86.572684 2.947946 87.558447 1.818992 -0.833347 5.405470 -2.548400 -15.975013 2.875263 5.988685 7.071226 -16.412932 0.000000 -0.000000 0.000000 3.342996 -2.198156 5.111073 3.953253 3.100641 3.981778 2.766379 -5.860311 -10.455192 0.000000 -0.000000 0.000000 -0.555003 0.834732 5.134528 1.464500 -3.429279 2.778689 1.248407 -2.576502 4.910703 3.950728 0.675948 -10.798718 4.236690 -3.527831 -7.772394 -28.817990 4.928334 0.691577 -57.645648 -3.317817 5.659694 9.736287 -12.494773 4.714054 -4.028885 0.272542 -4.654260 25.944914 -3.860212 -1.366465 59.206908 -1.306425 9.287494 -14.488978 15.215286 -4.069826 6.517324 -1.741586 -6.445670 
1.109204 0.761784 0.990245 -86.769229 2.976027 87.540779 1.832103 -0.683721 5.394628 -2.601219 -15.834928 2.965427 5.996189 7.080199 -16.496495 0.000000 -0.000000 0.000000 3.305520 -2.279120 5.196394 3.946340 3.172873 3.883796 2.784336 -5.723422 -10.432686 0.000000 -0.000000 0.000000 -0.615316 0.845640 5.283679 1.466650 -3.428422 2.756418 1.295791 -2.535698 4.832796 3.898751 1.107630 -10.522478 3.973350 -2.907604 -7.986287 -28.788965 5.437747 0.870848 -57.642915 -2.755936 5.443879 9.758727 -12.264652 4.999974 -4.309407 0.126294 -4.803031 25.949361 -4.041676 -1.298236 59.202628 -1.047772 9.126507 -14.488689 14.856889 -4.261324 6.611552 -1.590564 -6.648398 
1.108645 0.761435 0.990178 -87.031962 3.004245 87.603549 1.822180 -0.531620 5.420720 -2.593830 -15.706874 2.878786 5.928755 7.120001 -16.476476 0.000000 -0.000000 0.000000 3.218458 -2.358322 5.171972 4.050414 3.187297 3.836181 2.887921 -5.401948 -10.342898 0.000000 -0.000000 0.000000 -0.638145 0.890188 5.290561 1.420508 -3.326935 2.637092 1.242744 -2.459744 4.883177 3.840910 1.076763 -10.410979 4.174177 -3.215796 -7.947187 -28.692079 6.072470 0.793094 -57.690944 -2.329100 5.416122 9.704773 -12.549485 5.177234 -4.330606 0.211049 -4.707763 26.161668 -4.287050 -1.462187 59.104256 -0.906991 9.053872 -14.335715 14.947143 -4.471594 6.555325 -1.399906 -6.816277 
1.108522 0.761117 0.990258 -87.180994 3.005253 87.708547 1.798188 -0.501774 5.347816 -2.563866 -15.664212 2.848580 5.951806 7.116111 -16.502247 0.000000 -0.000000 0.000000 3.204155 -2.303856 5.053828 4.014544 3.266452 3.843912 2.940124 -5.335942 -10.359611 0.000000 -0.000000 0.000000 -0.712896 0.880976 5.414930 1.420901 -3.226186 2.342024 1.231813 -2.417075 4.943117 4.120664 0.882699 -10.577053 4.201378 -3.563935 -7.793247 -28.856023 6.690761 0.761625 -57.563871 -2.109391 5.452693 9.629523 -13.330179 5.258013 -4.214935 0.219020 -4.840645 26.276204 -4.349213 -1.623720 59.178929 -0.819598 9.170318 -14.422608 15.056682 -4.543101 6.312988 -1.409926 -6.591638 
1.108431 0.760670 0.990395 -87.209103 3.093440 87.625107 1.831605 -0.537123 5.473191 -2.505730 -15.548997 2.808120 5.931619 7.101448 -16.541385 0.000000 -0.000000 0.000000 3.315539 -2.245263 5.201697 3.978082 3.257710 3.800872 2.849317 -5.408996 -10.313147 0.000000 -0.000000 0.000000 -0.711303 0.889044 5.301704 1.449747 -3.187890 2.638768 1.235864 -2.378847 5.046422 4.356034 0.793001 -10.792068 4.230725 -3.747006 -7.756490 -28.965096 6.850424 0.705319 -57.603910 -2.186697 5.539161 9.551051 -14.386735 5.148877 -4.302470 0.121357 -5.100996 26.438592 -4.248690 -1.818933 59.105359 -0.621172 9.291253 -14.480456 15.629966 -4.634281 6.052239 -1.622402 -6.429314 
1.108608 0.760097 0.990096 -87.108051 3.103788 87.866472 1.823269 -0.748105 5.256851 -2.553541 -15.465036 2.746095 5.958285 7.080545 -16.487124 0.000000 -0.000000 0.000000 3.319289 -2.283428 4.948767 3.913917 3.308739 3.820450 2.913952 -5.537314 -10.282992 0.000000 -0.000000 0.000000 -0.771417 1.031367 5.082909 1.492532 -3.090195 2.620995 1.218398 -2.533147 5.185809 4.397522 1.014492 -11.152789 4.159654 -3.809758 -7.283059 -28.965221 6.966302 0.640156 -57.929132 -2.465378 5.803479 9.683975 -15.934659 4.815454 -3.877284 -0.141240 -5.634867 26.604812 -4.272219 -1.939910 59.121784 -0.208700 9.555903 -14.563494 16.443860 -4.881112 5.815733 -1.574781 -6.536658 
1.108563 0.759080 0.990182 -86.907753 3.089079 87.786030 1.696292 -0.761091 5.441182 -2.418784 -15.596488 2.584507 5.846656 6.925356 -16.425439 0.000000 -0.000000 0.000000 3.185802 -2.654203 5.043873 3.908178 3.277926 3.848472 2.929757 -5.323001 -10.283396 0.000000 -0.000000 0.000000 -0.743466 0.996991 5.160925 1.430701 -3.178247 2.788907 1.214313 -2.453874 5.038409 4.467263 0.704274 -11.100901 4.415664 -3.967048 -7.391963 -28.745022 6.779320 0.724888 -58.424807 -2.694484 5.994815 9.759645 -17.493291 4.640546 -3.667718 -0.187632 -6.387704 26.478918 -4.071670 -1.978624 59.242658 -0.250457 9.559462 -14.334609 17.964468 -5.200395 6.289719 -1.062930 -7.478205 
1.108762 0.758583 0.990381 -86.587299 3.161174 87.665539 1.803755 -0.910989 5.600061 -2.489049 -15.665332 2.493851 5.925104 6.865187 -16.412753 0.000000 -0.000000 0.000000 3.326423 -2.239523 5.257037 3.825551 2.789565 3.712715 3.051122 -5.529683 -10.347749 0.000000 -0.000000 0.000000 -0.764074 0.881107 5.260882 1.474826 -3.170441 2.849972 1.263286 -2.433822 5.073865 4.545839 0.760809 -10.957543 4.404558 -3.942453 -7.148742 -28.780834 6.642343 0.559277 -58.726943 -3.207490 6.258811 9.784996 -19.123987 4.497668 -3.585668 -0.158857 -6.796535 26.483934 -3.912219 -2.121650 59.434863 0.046765 9.757660 -14.514324 18.589943 -5.267026 6.235031 -0.998311 -7.452338 
1.109244 0.757743 0.990470 -86.373531 3.148469 87.610581 1.702573 -0.963451 5.591389 -2.428890 -15.587619 2.524064 5.863796 6.725773 -16.461653 0.000000 -0.000000 0.000000 3.277223 -1.882239 5.310815 3.837850 2.352860 3.689532 3.109712 -5.537062 -10.290940 0.000000 -0.000000 0.000000 -0.722946 0.795605 5.452005 1.476163 -3.151362 2.765361 1.218786 -2.360337 5.003561 4.801219 0.552358 -10.943770 4.581338 -4.268378 -6.986746 -28.862649 6.586373 0.384943 -58.917340 -3.698113 6.545392 9.847278 -20.693788 4.538615 -3.522190 -0.429326 -6.766345 26.547199 -3.764244 -2.282372 59.519702 0.299366 9.792605 -14.746421 18.866047 -5.569672 6.115592 -0.836923 -7.318068 
